<?xml version="1.0" encoding="utf-8"?>
<!-- Generator: Adobe Illustrator 24.2.0, SVG Export Plug-In . SVG Version: 6.00 Build 0)  -->
<svg version="1.1" id="Layer_1" xmlns="http://www.w3.org/2000/svg" xmlns:xlink="http://www.w3.org/1999/xlink" x="0px" y="0px"
	 viewBox="0 0 935 632" style="enable-background:new 0 0 935 632;" xml:space="preserve">
<style type="text/css">
	.st0{fill:#00FFFF;}
	.st1{fill:#ED1C24;}
	.st2{fill:#0000FF;}
	.st3{fill:#E6E6E6;}
	.st4{fill:#00FF00;}
	.st5{fill:#FF931E;}
	.st6{fill:#FF00FF;}
	.st7{fill:#FFFF00;}
	.st8{fill:#FFFFFF;}
	.st9{font-family:'SegoeUI-Bold';}
	.st10{font-size:21.39px;}
	.st11{font-size:21.64px;}
	.st12{letter-spacing:1;}
	.st13{fill:none;stroke:#FFFFFF;stroke-miterlimit:10;}
	.st14{font-size:20.6088px;}
</style>
<g>
	<path class="st0" d="M462.9,101.9c104.3,2.2,187,88.6,184.8,192.8c-0.4,17.1-3.1,34.1-8,50.5l-176.8-57.5V101.9 M458.9,97.9v192.8
		l183.4,59.6c6.3-19.2,9.4-39.4,9.4-59.6C651.8,184.2,565.4,97.9,458.9,97.9L458.9,97.9z"/>
	<path class="st1" d="M481.7,302.3l155.5,50.5c-5.6,16.2-13.5,31.5-23.2,45.6L481.7,302.3 M458.9,290.7l156,113.3
		c11.9-16.4,21.1-34.5,27.4-53.8L458.9,290.7z"/>
	<path class="st2" d="M462.9,298.6l146.4,106.4c-34.9,45.9-88.8,73.4-146.4,74.6V298.6 M458.9,290.7v192.8
		c61.7,0,119.7-29.6,156-79.5L458.9,290.7L458.9,290.7z"/>
	<path class="st3" d="M454.9,316v163.5c-17.1-0.4-34.1-3.1-50.5-8L454.9,316 M458.9,290.7l-59.6,183.4c19.2,6.3,39.4,9.4,59.6,9.4
		V290.7z"/>
	<path class="st4" d="M452.7,297l-55.9,172.1c-54.4-19-97.2-61.8-116.2-116.2L452.7,297 M458.9,290.7l-183.4,59.6
		c19.1,58.7,65.1,104.7,123.8,123.8L458.9,290.7L458.9,290.7z"/>
	<path class="st5" d="M344.7,140.3l107.7,148.3l-174.3,56.6C255.4,269.7,281.9,188,344.7,140.3 M345.6,134.7
		c-67.6,49.1-95.8,136.2-70,215.6L459,290.7L345.6,134.7L345.6,134.7z"/>
	<path class="st6" d="M396.8,112.4l50.5,155.5l-96.1-132.3C365.3,125.9,380.6,118,396.8,112.4 M399.3,107.3
		c-19.2,6.3-37.4,15.5-53.8,27.4l113.4,156L399.3,107.3L399.3,107.3z"/>
	<path class="st7" d="M454.9,101.9v163.6l-50.5-155.6C420.8,105,437.8,102.3,454.9,101.9 M458.9,97.9c-20.2,0-40.3,3.2-59.6,9.4
		l59.6,183.4V97.9L458.9,97.9z"/>
	<text transform="matrix(1 0 0 1 688.9164 134.4421)" class="st8 st9 st10">L</text>
	<text transform="matrix(1 0 0 1 699.8463 134.4421)" class="st8 st9 st10">i</text>
	<text transform="matrix(1 0 0 1 705.9663 134.4421)" class="st8 st9 st10">s</text>
	<text transform="matrix(1 0 0 1 715.3363 134.4421)" class="st8 st9 st10">t</text>
	<text transform="matrix(1 0 0 1 723.6564 134.4421)" class="st8 st9 st10"> </text>
	<text transform="matrix(1 0 0 1 729.6263 134.4421)" class="st8 st9 st10">o</text>
	<text transform="matrix(1 0 0 1 742.5663 134.4421)" class="st8 st9 st10">n</text>
	<text transform="matrix(1 0 0 1 755.3163 134.4421)" class="st8 st9 st10"> </text>
	<text transform="matrix(1 0 0 1 761.5563 134.4421)" class="st8 st9 st10">P</text>
	<text transform="matrix(1 0 0 1 774.7363 134.4421)" class="st8 st9 st10">a</text>
	<text transform="matrix(1 0 0 1 786.1163 134.4421)" class="st8 st9 st10">n</text>
	<text transform="matrix(1 0 0 1 798.8663 134.4421)" class="st8 st9 st10">c</text>
	<text transform="matrix(1 0 0 1 809.0663 134.4421)" class="st8 st9 st10">a</text>
	<text transform="matrix(1 0 0 1 820.4463 134.4421)" class="st8 st9 st10">k</text>
	<text transform="matrix(1 0 0 1 831.9264 134.4421)" class="st8 st9 st10">e</text>
	<text transform="matrix(1 0 0 1 843.4364 134.4421)" class="st8 st9 st10"> </text>
	<text transform="matrix(1 0 0 1 850.2563 134.4421)" class="st8 st9 st10">S</text>
	<text transform="matrix(1 0 0 1 862.3063 134.4421)" class="st8 st9 st10">w</text>
	<text transform="matrix(1 0 0 1 879.8763 134.4421)" class="st8 st9 st10">a</text>
	<text transform="matrix(1 0 0 1 891.2563 134.4421)" class="st8 st9 st10">p</text>
	<text transform="matrix(1 0 0 1 845.3463 169.3921)" class="st8 st9 st11">30</text>
	<text transform="matrix(1 0 0 1 870.4963 169.3921)" class="st8 st9 st11">%</text>
	<text transform="matrix(1 0 0 1 845.3363 396.332)" class="st8 st9 st11">5</text>
	<text transform="matrix(1 0 0 1 857.9164 396.332)" class="st8 st9 st11">%</text>
	<text transform="matrix(1 0 0 1 609.4963 476.9321)" class="st8 st9 st11">P</text>
	<text transform="matrix(1 0 0 1 622.8263 476.9321)" class="st8 st9 st11">r</text>
	<text transform="matrix(1 0 0 1 631.3763 476.9321)" class="st8 st9 st11">e</text>
	<text transform="matrix(1 0 0 1 651.2863 476.9321)" class="st8 st9 st11">-</text>
	<text transform="matrix(1 0 0 1 666.2863 476.9321)" class="st8 st9 st11">s</text>
	<text transform="matrix(1 0 0 1 675.7662 476.9321)" class="st8 st9 st11">a</text>
	<text transform="matrix(1 0 0 1 687.2762 476.9321)" class="st8 st9 st11">l</text>
	<text transform="matrix(1 0 0 1 693.4663 476.9321)" class="st8 st9 st11">e</text>
	<text transform="matrix(1 0 0 1 636.4464 504.7821)" class="st8 st9 st11">1</text>
	<text transform="matrix(1 0 0 1 649.0264 504.7821)" class="st8 st9 st11">8%</text>
	<text transform="matrix(1 0 0 1 326.6764 592.662)" class="st8 st9 st10">A</text>
	<text transform="matrix(1 0 0 1 341.6664 592.662)" class="st8 st9 st10">r</text>
	<text transform="matrix(1 0 0 1 350.1164 592.662)" class="st8 st9 st10">i</text>
	<text transform="matrix(1 0 0 1 356.2364 592.662)" class="st8 st9 st10">d</text>
	<text transform="matrix(1 0 0 1 369.2864 592.662)" class="st8 st9 st10">r</text>
	<text transform="matrix(1 0 0 1 377.7364 592.662)" class="st8 st9 st10">o</text>
	<text transform="matrix(1 0 0 1 390.6764 592.662)" class="st8 st9 st10">p</text>
	<text transform="matrix(1 0 0 1 348.8464 622.6721)" class="st8 st9 st11">2%</text>
	<text transform="matrix(1 0 0 1 181.2363 426.222)" class="st8 st9 st11">Burn</text>
	<text transform="matrix(1 0 0 1 186.4163 455.8221)" class="st8 st9 st11">15</text>
	<text transform="matrix(1 0 0 1 211.5664 455.8221)" class="st8 st9 st11">%</text>
	<text transform="matrix(1 0 0 1 92.8063 186.5321)" class="st8 st9 st11">20</text>
	<text transform="matrix(1 0 0 1 117.9564 186.5321)" class="st8 st9 st11">%</text>
	<text transform="matrix(1 0 0 1 155.9863 49.5521)" class="st8 st9 st10">D</text>
	<text transform="matrix(1 0 0 1 171.7163 49.5521)" class="st8 st9 st10">e</text>
	<text transform="matrix(1 0 0 1 183.2163 49.5521)" class="st8 st9 st10">v</text>
	<text transform="matrix(1 0 0 1 194.6863 49.5521)" class="st8 st9 st10">e</text>
	<text transform="matrix(1 0 0 1 206.1863 49.5521)" class="st8 st9 st10">l</text>
	<text transform="matrix(1 0 0 1 212.3064 49.5521)" class="st8 st9 st10">o</text>
	<text transform="matrix(1 0 0 1 225.2564 49.5521)" class="st8 st9 st10">p</text>
	<text transform="matrix(1 0 0 1 238.3264 49.5521)" class="st8 st9 st10">m</text>
	<text transform="matrix(1 0 0 1 257.2064 49.5521)" class="st8 st9 st10">e</text>
	<text transform="matrix(1 0 0 1 268.9664 49.5521)" class="st8 st9 st10">n</text>
	<text transform="matrix(1 0 0 1 281.7164 49.5521)" class="st8 st9 st10">t</text>
	<text transform="matrix(1 0 0 1 290.0364 49.5521)" class="st8 st9 st10 st12"> </text>
	<text transform="matrix(1 0 0 1 297.1364 49.5521)" class="st8 st9 st10">T</text>
	<text transform="matrix(1 0 0 1 309.6664 49.5521)" class="st8 st9 st10">e</text>
	<text transform="matrix(1 0 0 1 321.1764 49.5521)" class="st8 st9 st10">a</text>
	<text transform="matrix(1 0 0 1 332.5564 49.5521)" class="st8 st9 st10">m</text>
	<text transform="matrix(1 0 0 1 234.9564 72.5521)" class="st8 st9 st11">5</text>
	<text transform="matrix(1 0 0 1 247.5364 72.5521)" class="st8 st9 st11">%</text>
	<text transform="matrix(1 0 0 1 491.4064 18.1821)" class="st8 st9 st10">M</text>
	<text transform="matrix(1 0 0 1 512.2164 18.1821)" class="st8 st9 st10">a</text>
	<text transform="matrix(1 0 0 1 523.5964 18.1821)" class="st8 st9 st10">r</text>
	<text transform="matrix(1 0 0 1 532.0463 18.1821)" class="st8 st9 st10">k</text>
	<text transform="matrix(1 0 0 1 543.5264 18.1821)" class="st8 st9 st10">e</text>
	<text transform="matrix(1 0 0 1 555.0363 18.1821)" class="st8 st9 st10">t</text>
	<text transform="matrix(1 0 0 1 563.3563 18.1821)" class="st8 st9 st10">i</text>
	<text transform="matrix(1 0 0 1 569.4763 18.1821)" class="st8 st9 st10">n</text>
	<text transform="matrix(1 0 0 1 582.2263 18.1821)" class="st8 st9 st10">g</text>
	<text transform="matrix(1 0 0 1 559.1864 41.8721)" class="st8 st9 st11">5</text>
	<text transform="matrix(1 0 0 1 571.7664 41.8721)" class="st8 st9 st11">%</text>
	<polyline class="st13" points="917.6,179.5 662.4,179.5 631.9,209.4 	"/>
	<circle class="st8" cx="917.6" cy="180.2" r="2.7"/>
	<circle class="st8" cx="661.8" cy="180.2" r="2.7"/>
	<circle class="st8" cx="661.8" cy="407.3" r="2.7"/>
	<circle class="st8" cx="905.3" cy="407.3" r="2.7"/>
	<circle class="st8" cx="750.9" cy="521.8" r="2.7"/>
	<circle class="st8" cx="348.9" cy="564.4" r="2.7"/>
	<circle class="st8" cx="304.4" cy="477.2" r="2.7"/>
	<circle class="st8" cx="127.4" cy="477.2" r="2.7"/>
	<circle class="st8" cx="-11.9" cy="198.7" r="2.7"/>
	<ellipse transform="matrix(0.1602 -0.9871 0.9871 0.1602 4.7253 402.998)" class="st8" cx="239.2" cy="198.7" rx="2.7" ry="2.7"/>
	<circle class="st8" cx="348.3" cy="80" r="2.7"/>
	<circle class="st8" cx="438.1" cy="49.9" r="2.7"/>
	<circle class="st8" cx="608.3" cy="49.9" r="2.7"/>
	<circle class="st8" cx="158.9" cy="79.4" r="2.7"/>
	<circle class="st8" cx="412.1" cy="564.4" r="2.7"/>
	<circle class="st8" cx="584.2" cy="521.8" r="2.7"/>
	<polyline class="st13" points="629.9,380 661.8,407.3 905.3,407.3 	"/>
	<polyline class="st13" points="750.9,521.8 584.2,521.8 536.9,467.1 	"/>
	<polyline class="st13" points="426.4,480.8 412.4,564.7 347.2,564.7 	"/>
	<polyline class="st13" points="321.4,426 305,477.2 127.4,477.2 	"/>
	<polyline class="st13" points="275.9,229.3 239.9,199.1 -11.9,199.1 	"/>
	<polyline class="st13" points="372.5,118.3 348.3,79.7 159.6,79.7 	"/>
	<polyline class="st13" points="431.6,99.6 437.8,48.8 609.6,49.5 	"/>
	<g>
		<g>
			<g>
				<text transform="matrix(1 0 0 1 59.7506 149.2329)" class="st8 st9 st14">Cex listings</text>
			</g>
		</g>
	</g>
	<g>
		<g>
			<g>
				<text transform="matrix(1 0 0 1 772.3961 359.6987)" class="st8 st9 st14"> Pre-sale whitelist </text>
			</g>
		</g>
	</g>
</g>
</svg>
