<svg id="Layer_1" data-name="Layer 1" xmlns="http://www.w3.org/2000/svg" viewBox="0 0 964.06 631.99"><defs><style>.cls-1{fill:aqua;}.cls-2{fill:#ed1c24;}.cls-3{fill:blue;}.cls-4{fill:#e6e6e6;}.cls-5{fill:lime;}.cls-6{fill:#ff931e;}.cls-7{fill:#f0f;}.cls-8{fill:#ff0;}.cls-10,.cls-12,.cls-15,.cls-9{isolation:isolate;font-family:SegoeUI-Bold, Segoe UI;font-weight:700;}.cls-12,.cls-9{font-size:21.39px;}.cls-10,.cls-12,.cls-14,.cls-15,.cls-9{fill:#fff;}.cls-10{font-size:21.64px;}.cls-11{letter-spacing:0em;}.cls-12{letter-spacing:0.05em;}.cls-13{fill:none;stroke:#fff;stroke-miterlimit:10;}.cls-15{font-size:20.61px;}.cls-16{letter-spacing:0em;}</style></defs><path class="cls-1" d="M463,101.91c104.3,2.2,187,88.6,184.8,192.8a192.2,192.2,0,0,1-8,50.5L463,287.71V101.91m-4-4v192.8l183.4,59.6a191.43,191.43,0,0,0,9.4-59.6c.1-106.5-86.3-192.8-192.8-192.8Z" transform="translate(14.53 0)"/><path class="cls-2" d="M481.77,302.31l155.5,50.5a190.28,190.28,0,0,1-23.2,45.6l-132.3-96.1M459,290.71,615,404a193.86,193.86,0,0,0,27.4-53.8Z" transform="translate(14.53 0)"/><path class="cls-3" d="M463,298.61,609.37,405A188.91,188.91,0,0,1,463,479.61v-181m-4-7.9v192.8A193,193,0,0,0,615,404L459,290.71Z" transform="translate(14.53 0)"/><path class="cls-4" d="M455,316v163.5a192.2,192.2,0,0,1-50.5-8L455,316m4-25.3-59.6,183.4a191.43,191.43,0,0,0,59.6,9.4Z" transform="translate(14.53 0)"/><path class="cls-5" d="M452.77,297l-55.9,172.1a189.19,189.19,0,0,1-116.2-116.2L452.77,297m6.2-6.3-183.4,59.6a193,193,0,0,0,123.8,123.8L459,290.71Z" transform="translate(14.53 0)"/><path class="cls-6" d="M344.77,140.31l107.7,148.3-174.3,56.6a189,189,0,0,1,66.6-204.9m.9-5.6a192.84,192.84,0,0,0-70,215.6l183.4-59.6-113.4-156Z" transform="translate(14.53 0)"/><path class="cls-7" d="M396.87,112.41l50.5,155.5-96.1-132.3a190.28,190.28,0,0,1,45.6-23.2m2.5-5.1a195.25,195.25,0,0,0-53.8,27.4l113.4,156-59.6-183.4Z" transform="translate(14.53 0)"/><path class="cls-8" d="M455,101.91v163.6l-50.5-155.6a192.2,192.2,0,0,1,50.5-8m4-4a194.89,194.89,0,0,0-59.6,9.4L459,290.71V97.91Z" transform="translate(14.53 0)"/><text class="cls-9" transform="translate(703.52 134.44)">L</text><text class="cls-9" transform="translate(714.45 134.44)">i</text><text class="cls-9" transform="translate(720.57 134.44)">s</text><text class="cls-9" transform="translate(729.94 134.44)">t</text><text class="cls-9" transform="translate(738.26 134.44)"> </text><text class="cls-9" transform="translate(744.23 134.44)">o</text><text class="cls-9" transform="translate(757.17 134.44)">n</text><text class="cls-9" transform="translate(769.92 134.44)"> </text><text class="cls-9" transform="translate(776.16 134.44)">P</text><text class="cls-9" transform="translate(789.34 134.44)">a</text><text class="cls-9" transform="translate(800.72 134.44)">n</text><text class="cls-9" transform="translate(813.47 134.44)">c</text><text class="cls-9" transform="translate(823.67 134.44)">a</text><text class="cls-9" transform="translate(835.05 134.44)">k</text><text class="cls-9" transform="translate(846.53 134.44)">e</text><text class="cls-9" transform="translate(858.04 134.44)"> </text><text class="cls-9" transform="translate(864.86 134.44)">S</text><text class="cls-9" transform="translate(876.91 134.44)">w</text><text class="cls-9" transform="translate(894.48 134.44)">a</text><text class="cls-9" transform="translate(905.86 134.44)">p</text><text class="cls-10" transform="translate(859.95 169.39)">30</text><text class="cls-10" transform="translate(885.1 169.39)">%</text><text class="cls-10" transform="translate(859.94 396.33)">23%</text><text class="cls-10" transform="translate(624.1 476.93)">P</text><text class="cls-10" transform="translate(637.43 476.93)">r</text><text class="cls-10" transform="translate(645.98 476.93)">e</text><text class="cls-10" transform="translate(665.89 476.93)">-</text><text class="cls-10" transform="translate(680.89 476.93)">s</text><text class="cls-10" transform="translate(690.37 476.93)">a</text><text class="cls-10" transform="translate(701.88 476.93)">l</text><text class="cls-10" transform="translate(708.07 476.93)">e</text><text class="cls-10" transform="translate(651.05 504.78)">1</text><text class="cls-10" transform="translate(663.63 504.78)">8%</text><text class="cls-9" transform="translate(341.28 592.66)">A</text><text class="cls-9" transform="translate(356.27 592.66)">r</text><text class="cls-9" transform="translate(364.72 592.66)">i</text><text class="cls-9" transform="translate(370.84 592.66)">d</text><text class="cls-9" transform="translate(383.89 592.66)">r</text><text class="cls-9" transform="translate(392.34 592.66)">o</text><text class="cls-9" transform="translate(405.28 592.66)">p</text><text class="cls-10" transform="translate(363.45 622.67)">2%</text><text class="cls-10" transform="translate(195.84 426.22)">Bu<tspan class="cls-11" x="26.97" y="0">r</tspan><tspan x="35.64" y="0">n</tspan></text><text class="cls-10" transform="translate(201.02 455.82)">15</text><text class="cls-10" transform="translate(226.17 455.82)">%</text><text class="cls-10" transform="translate(107.41 186.53)">20</text><text class="cls-10" transform="translate(132.56 186.53)">%</text><text class="cls-9" transform="translate(170.59 49.55)">D</text><text class="cls-9" transform="translate(186.32 49.55)">e</text><text class="cls-9" transform="translate(197.82 49.55)">v</text><text class="cls-9" transform="translate(209.29 49.55)">e</text><text class="cls-9" transform="translate(220.79 49.55)">l</text><text class="cls-9" transform="translate(226.91 49.55)">o</text><text class="cls-9" transform="translate(239.86 49.55)">p</text><text class="cls-9" transform="translate(252.93 49.55)">m</text><text class="cls-9" transform="translate(271.81 49.55)">e</text><text class="cls-9" transform="translate(283.57 49.55)">n</text><text class="cls-9" transform="translate(296.32 49.55)">t</text><text class="cls-12" transform="translate(304.64 49.55)"> </text><text class="cls-9" transform="translate(311.74 49.55)">T</text><text class="cls-9" transform="translate(324.27 49.55)">e</text><text class="cls-9" transform="translate(335.78 49.55)">a</text><text class="cls-9" transform="translate(347.16 49.55)">m</text><text class="cls-10" transform="translate(249.56 72.55)">5</text><text class="cls-10" transform="translate(262.14 72.55)">%</text><text class="cls-9" transform="translate(506.01 18.18)">M</text><text class="cls-9" transform="translate(526.82 18.18)">a</text><text class="cls-9" transform="translate(538.2 18.18)">r</text><text class="cls-9" transform="translate(546.65 18.18)">k</text><text class="cls-9" transform="translate(558.13 18.18)">e</text><text class="cls-9" transform="translate(569.64 18.18)">t</text><text class="cls-9" transform="translate(577.96 18.18)">i</text><text class="cls-9" transform="translate(584.08 18.18)">n</text><text class="cls-9" transform="translate(596.83 18.18)">g</text><text class="cls-10" transform="translate(573.79 41.87)">5</text><text class="cls-10" transform="translate(586.37 41.87)">%</text><polyline class="cls-13" points="932.2 179.5 677 179.5 646.5 209.4"/><circle class="cls-14" cx="932.2" cy="180.2" r="2.7"/><circle class="cls-14" cx="676.4" cy="180.2" r="2.7"/><circle class="cls-14" cx="676.4" cy="407.3" r="2.7"/><circle class="cls-14" cx="919.9" cy="407.3" r="2.7"/><circle class="cls-14" cx="765.5" cy="521.8" r="2.7"/><circle class="cls-14" cx="363.5" cy="564.4" r="2.7"/><circle class="cls-14" cx="319" cy="477.2" r="2.7"/><circle class="cls-14" cx="127.47" cy="477.21" r="2.7" transform="matrix(1, -0.1, 0.1, 1, -31.87, 14.88)"/><circle class="cls-14" cx="2.7" cy="198.7" r="2.7"/><circle class="cls-14" cx="253.78" cy="198.72" r="2.7"/><circle class="cls-14" cx="362.9" cy="80" r="2.7"/><circle class="cls-14" cx="452.7" cy="49.9" r="2.7"/><circle class="cls-14" cx="622.9" cy="49.9" r="2.7"/><circle class="cls-14" cx="173.5" cy="79.4" r="2.7"/><circle class="cls-14" cx="426.7" cy="564.4" r="2.7"/><circle class="cls-14" cx="598.8" cy="521.8" r="2.7"/><polyline class="cls-13" points="644.5 380 676.4 407.3 919.9 407.3"/><polyline class="cls-13" points="765.5 521.8 598.8 521.8 551.5 467.1"/><polyline class="cls-13" points="441 480.8 427 564.7 361.8 564.7"/><polyline class="cls-13" points="336 426 319.6 477.2 142 477.2"/><polyline class="cls-13" points="290.5 229.3 254.5 199.1 2.7 199.1"/><polyline class="cls-13" points="387.1 118.3 362.9 79.7 174.2 79.7"/><polyline class="cls-13" points="446.2 99.6 452.4 48.8 624.2 49.5"/><text class="cls-15" transform="translate(74.35 149.23)">Cex listings</text><text class="cls-15" transform="translate(787 359.7)"><tspan xml:space="preserve"> P</tspan><tspan class="cls-16" x="18.34" y="0">r</tspan><tspan x="26.47" y="0">e-sale whi</tspan><tspan class="cls-16" x="123.49" y="0">t</tspan><tspan x="131.43" y="0">elist </tspan></text></svg>