<?xml version="1.0" encoding="utf-8"?>
<!-- Generator: Adobe Illustrator 25.0.0, SVG Export Plug-In . SVG Version: 6.00 Build 0)  -->
<svg version="1.1" id="Layer_1" xmlns="http://www.w3.org/2000/svg" xmlns:xlink="http://www.w3.org/1999/xlink" x="0px" y="0px"
	 viewBox="0 0 964.1 632" style="enable-background:new 0 0 964.1 632;" xml:space="preserve">
<style type="text/css">
	.st0{fill:#00FFFF;}
	.st1{fill:#E6E6E6;}
	.st2{fill:#00FF00;}
	.st3{fill:#FF931E;}
	.st4{fill:#FF00FF;}
	.st5{fill:#FFFF00;}
	.st6{fill:#FFFFFF;}
	.st7{font-family:'SegoeUI-Bold';}
	.st8{font-size:21.39px;}
	.st9{font-size:21.64px;}
	.st10{fill:none;stroke:#FFFFFF;stroke-miterlimit:10;}
	.st11{font-size:20.61px;}
	.st12{fill:none;stroke:#0000FF;stroke-width:3;stroke-miterlimit:10;}
</style>
<g>
	<path class="st0" d="M492.2,101.9c104.3,2.2,187,88.6,184.8,192.8c-0.4,17.1-3.1,34.1-8,50.5l-176.8-57.5V101.9 M488.2,97.9v192.8
		l183.4,59.6c6.3-19.2,9.4-39.4,9.4-59.6C681.1,184.2,594.7,97.9,488.2,97.9L488.2,97.9z"/>
	<path class="st1" d="M484.2,316v163.5c-17.1-0.4-34.1-3.1-50.5-8L484.2,316 M488.2,290.7l-59.6,183.4c19.2,6.3,39.4,9.4,59.6,9.4
		V290.7z"/>
	<path class="st2" d="M481.9,297L426,469.1c-54.4-19-97.2-61.8-116.2-116.2L481.9,297 M488.1,290.7l-183.4,59.6
		C323.8,409,369.9,455,428.5,474.1L488.1,290.7L488.1,290.7z"/>
	<path class="st3" d="M373.9,140.3l107.7,148.3l-174.3,56.6C284.6,269.7,311.2,188,373.9,140.3 M374.8,134.7
		c-67.6,49.1-95.8,136.2-70,215.6l183.4-59.6L374.8,134.7z"/>
	<path class="st4" d="M426,112.4l50.5,155.5l-96.1-132.3C394.5,125.9,409.9,118.1,426,112.4 M428.5,107.3
		c-19.2,6.3-37.4,15.5-53.8,27.4l113.4,156L428.5,107.3L428.5,107.3z"/>
	<path class="st5" d="M484.2,101.9v163.6l-50.5-155.6C450.1,105,467.1,102.3,484.2,101.9 M488.2,97.9c-20.2,0-40.3,3.2-59.6,9.4
		l59.6,183.4V97.9z"/>
	<text transform="matrix(1 0 0 1 718.1589 134.4472)" class="st6 st7 st8">L</text>
	<text transform="matrix(1 0 0 1 729.0889 134.4472)" class="st6 st7 st8">i</text>
	<text transform="matrix(1 0 0 1 735.209 134.4472)" class="st6 st7 st8">s</text>
	<text transform="matrix(1 0 0 1 744.5789 134.4472)" class="st6 st7 st8">t</text>
	<text transform="matrix(1 0 0 1 758.8688 134.4472)" class="st6 st7 st8">o</text>
	<text transform="matrix(1 0 0 1 771.8088 134.4472)" class="st6 st7 st8">n</text>
	<text transform="matrix(1 0 0 1 790.7988 134.4472)" class="st6 st7 st8">P</text>
	<text transform="matrix(1 0 0 1 803.9789 134.4472)" class="st6 st7 st8">a</text>
	<text transform="matrix(1 0 0 1 815.3589 134.4472)" class="st6 st7 st8">n</text>
	<text transform="matrix(1 0 0 1 828.1089 134.4472)" class="st6 st7 st8">c</text>
	<text transform="matrix(1 0 0 1 838.3088 134.4472)" class="st6 st7 st8">a</text>
	<text transform="matrix(1 0 0 1 849.689 134.4472)" class="st6 st7 st8">k</text>
	<text transform="matrix(1 0 0 1 861.1689 134.4472)" class="st6 st7 st8">e</text>
	<text transform="matrix(1 0 0 1 879.4989 134.4472)" class="st6 st7 st8">S</text>
	<text transform="matrix(1 0 0 1 891.5488 134.4472)" class="st6 st7 st8">w</text>
	<text transform="matrix(1 0 0 1 909.1188 134.4472)" class="st6 st7 st8">a</text>
	<text transform="matrix(1 0 0 1 920.4989 134.4472)" class="st6 st7 st8">p</text>
	<text transform="matrix(1 0 0 1 874.5889 169.3969)" class="st6 st7 st9">30</text>
	<text transform="matrix(1 0 0 1 899.7388 169.3969)" class="st6 st7 st9">%</text>
	<text transform="matrix(1 0 0 1 821.0077 449.927)" class="st6 st7 st9">25%</text>
	<text transform="matrix(1 0 0 1 355.9188 592.6672)" class="st6 st7 st8">A</text>
	<text transform="matrix(1 0 0 1 370.9088 592.6672)" class="st6 st7 st8">r</text>
	<text transform="matrix(1 0 0 1 379.3588 592.6672)" class="st6 st7 st8">i</text>
	<text transform="matrix(1 0 0 1 385.4788 592.6672)" class="st6 st7 st8">d</text>
	<text transform="matrix(1 0 0 1 398.5289 592.6672)" class="st6 st7 st8">r</text>
	<text transform="matrix(1 0 0 1 406.9788 592.6672)" class="st6 st7 st8">o</text>
	<text transform="matrix(1 0 0 1 419.9188 592.6672)" class="st6 st7 st8">p</text>
	<text transform="matrix(1 0 0 1 378.0889 622.6772)" class="st6 st7 st9">2%</text>
	<text transform="matrix(1 0 0 1 210.4788 426.227)" class="st6 st7 st9">Bu</text>
	<text transform="matrix(1 0 0 1 237.4489 426.227)" class="st6 st7 st9">r</text>
	<text transform="matrix(1 0 0 1 246.1189 426.227)" class="st6 st7 st9">n</text>
	<text transform="matrix(1 0 0 1 215.6588 455.8271)" class="st6 st7 st9">13</text>
	<text transform="matrix(1 0 0 1 240.8089 455.8271)" class="st6 st7 st9">%</text>
	<text transform="matrix(1 0 0 1 122.0488 186.5371)" class="st6 st7 st9">20</text>
	<text transform="matrix(1 0 0 1 147.1988 186.5371)" class="st6 st7 st9">%</text>
	<text transform="matrix(1 0 0 1 185.2288 49.5571)" class="st6 st7 st8">D</text>
	<text transform="matrix(1 0 0 1 200.9588 49.5571)" class="st6 st7 st8">e</text>
	<text transform="matrix(1 0 0 1 212.4588 49.5571)" class="st6 st7 st8">v</text>
	<text transform="matrix(1 0 0 1 223.9288 49.5571)" class="st6 st7 st8">e</text>
	<text transform="matrix(1 0 0 1 235.4288 49.5571)" class="st6 st7 st8">l</text>
	<text transform="matrix(1 0 0 1 241.5488 49.5571)" class="st6 st7 st8">o</text>
	<text transform="matrix(1 0 0 1 254.4989 49.5571)" class="st6 st7 st8">p</text>
	<text transform="matrix(1 0 0 1 267.5689 49.5571)" class="st6 st7 st8">m</text>
	<text transform="matrix(1 0 0 1 286.4489 49.5571)" class="st6 st7 st8">e</text>
	<text transform="matrix(1 0 0 1 298.2089 49.5571)" class="st6 st7 st8">n</text>
	<text transform="matrix(1 0 0 1 310.9589 49.5571)" class="st6 st7 st8">t</text>
	<text transform="matrix(1 0 0 1 326.3788 49.5571)" class="st6 st7 st8">T</text>
	<text transform="matrix(1 0 0 1 338.9088 49.5571)" class="st6 st7 st8">e</text>
	<text transform="matrix(1 0 0 1 350.4188 49.5571)" class="st6 st7 st8">a</text>
	<text transform="matrix(1 0 0 1 361.7988 49.5571)" class="st6 st7 st8">m</text>
	<text transform="matrix(1 0 0 1 264.1989 72.5571)" class="st6 st7 st9">5</text>
	<text transform="matrix(1 0 0 1 276.7788 72.5571)" class="st6 st7 st9">%</text>
	<text transform="matrix(1 0 0 1 520.6489 18.187)" class="st6 st7 st8">M</text>
	<text transform="matrix(1 0 0 1 541.4589 18.187)" class="st6 st7 st8">a</text>
	<text transform="matrix(1 0 0 1 552.8389 18.187)" class="st6 st7 st8">r</text>
	<text transform="matrix(1 0 0 1 561.2889 18.187)" class="st6 st7 st8">k</text>
	<text transform="matrix(1 0 0 1 572.7689 18.187)" class="st6 st7 st8">e</text>
	<text transform="matrix(1 0 0 1 584.2789 18.187)" class="st6 st7 st8">t</text>
	<text transform="matrix(1 0 0 1 592.5989 18.187)" class="st6 st7 st8">i</text>
	<text transform="matrix(1 0 0 1 598.7189 18.187)" class="st6 st7 st8">n</text>
	<text transform="matrix(1 0 0 1 611.4689 18.187)" class="st6 st7 st8">g</text>
	<text transform="matrix(1 0 0 1 588.4288 41.8774)" class="st6 st7 st9">5</text>
	<text transform="matrix(1 0 0 1 601.0089 41.8774)" class="st6 st7 st9">%</text>
	<polyline class="st10" points="946.8,179.5 691.6,179.5 661.1,209.4 	"/>
	<circle class="st6" cx="946.8" cy="180.2" r="2.7"/>
	<circle class="st6" cx="691" cy="180.2" r="2.7"/>
	<circle class="st6" cx="637.4" cy="460.9" r="2.7"/>
	<circle class="st6" cx="880.9" cy="460.9" r="2.7"/>
	<circle class="st6" cx="378.1" cy="564.4" r="2.7"/>
	<circle class="st6" cx="333.6" cy="477.2" r="2.7"/>
	
		<ellipse transform="matrix(0.995 -9.951456e-02 9.951456e-02 0.995 -46.9113 18.1019)" class="st6" cx="158" cy="479.3" rx="2.7" ry="2.7"/>
	<circle class="st6" cx="17.3" cy="198.7" r="2.7"/>
	
		<ellipse transform="matrix(0.3162 -0.9487 0.9487 0.3162 -4.9799 390.4424)" class="st6" cx="268.4" cy="198.7" rx="2.7" ry="2.7"/>
	<circle class="st6" cx="377.5" cy="80" r="2.7"/>
	<circle class="st6" cx="467.3" cy="49.9" r="2.7"/>
	<circle class="st6" cx="637.5" cy="49.9" r="2.7"/>
	<circle class="st6" cx="188.1" cy="79.4" r="2.7"/>
	<circle class="st6" cx="441.3" cy="564.4" r="2.7"/>
	<polyline class="st10" points="606.8,434.7 638.6,460.9 880.9,460.9 	"/>
	<polyline class="st10" points="455.6,480.8 441.6,564.7 376.4,564.7 	"/>
	<polyline class="st10" points="350.6,426 334.2,477.2 156.6,477.2 	"/>
	<polyline class="st10" points="305.1,229.3 269.1,199.1 17.3,199.1 	"/>
	<polyline class="st10" points="401.7,118.3 377.5,79.7 188.8,79.7 	"/>
	<polyline class="st10" points="460.8,99.6 467,48.8 638.8,49.5 	"/>
	<text transform="matrix(1 0 0 1 88.9888 149.2373)" class="st6 st7 st11">Cex listings</text>
	<text transform="matrix(1 0 0 1 748.0676 413.2968)" class="st6 st7 st11"> P</text>
	<text transform="matrix(1 0 0 1 766.4077 413.2968)" class="st6 st7 st11">r</text>
	<text transform="matrix(1 0 0 1 774.5376 413.2968)" class="st6 st7 st11">e-sale whi</text>
	<text transform="matrix(1 0 0 1 871.5576 413.2968)" class="st6 st7 st11">t</text>
	<text transform="matrix(1 0 0 1 879.4977 413.2968)" class="st6 st7 st11">elist</text>
	<path class="st12" d="M488.2,290.7L486.7,482c61.7,0,157.8-53.6,183.5-132.1L488.2,290.7z"/>
</g>
</svg>
